<?xml version="1.0" standalone="no"?>
<!DOCTYPE svg PUBLIC "-//W3C//DTD SVG 20010904//EN"
 "http://www.w3.org/TR/2001/REC-SVG-20010904/DTD/svg10.dtd">
<svg version="1.0" xmlns="http://www.w3.org/2000/svg"
 width="256.000000pt" height="256.000000pt" viewBox="0 0 256.000000 256.000000"
 preserveAspectRatio="xMidYMid meet">
<metadata>
Created by potrace 1.14, written by Peter Selinger 2001-2017
</metadata>
<g transform="translate(0.000000,256.000000) scale(0.100000,-0.100000)"
fill="#000000" stroke="none">
<path d="M1159 2556 c-2 -2 -29 -7 -60 -10 -31 -4 -71 -11 -88 -16 -17 -5 -35
-9 -39 -10 -17 -2 -89 -22 -107 -29 -136 -56 -181 -76 -183 -83 -2 -4 -9 -8
-16 -8 -7 0 -45 -22 -85 -50 -40 -27 -74 -50 -76 -50 -20 0 -185 -169 -252
-258 -86 -114 -188 -325 -208 -430 -2 -9 -4 -18 -5 -19 -4 -4 -8 -26 -27 -133
-18 -98 -6 -371 21 -475 2 -5 6 -23 10 -40 4 -16 10 -37 13 -45 4 -8 7 -17 8
-20 6 -25 51 -132 75 -180 17 -33 30 -63 29 -66 0 -4 3 -10 8 -13 5 -3 29 -35
54 -71 161 -233 378 -394 654 -486 136 -45 261 -62 425 -59 126 3 155 6 220
20 14 3 38 8 54 11 16 2 33 7 38 10 4 3 16 7 25 9 75 16 295 120 358 169 173
135 243 205 323 326 21 30 40 57 43 60 6 4 71 128 74 140 1 3 7 19 14 35 22
51 62 169 65 190 2 11 6 34 9 50 4 17 9 44 13 60 3 17 7 93 9 170 3 129 -7
225 -39 360 -9 40 -38 120 -48 133 -6 6 -8 12 -5 12 3 0 -12 35 -33 78 -32 67
-55 105 -125 210 -54 80 -199 217 -312 295 -97 66 -296 157 -373 171 -14 3
-25 5 -25 6 0 2 -4 2 -90 20 -57 11 -337 25 -346 16z"/>
</g>
</svg>
